{"title":"Casino Royale Hindi TheAaax9","uid":5843177,"size":772589681,"categoryP":"video","categoryS":"movies","magnet":"?xt=urn:btih:e1a81bd09b4a2ab535c4c6ae59bbbd8c93ce6a0a&amp;dn=Casino+Royale+Hindi+TheAaax9&amp;tr=udp%3A%2F%2Ftracker.openbittorrent.com%3A80&amp;tr=udp%3A%2F%2Fopen.demonii.com%3A1337&amp;tr=udp%3A%2F%2Ftracker.coppersurfer.tk%3A6969&amp;tr=udp%3A%2F%2Fexodus.desync.com%3A6969","seeders":0,"leechers":0,"uploader":"TheAaax9","files":-1,"time":1285053605,"description":"                               $$TheAaax9$$\nTheAaax9(Mr.Akshay)\n\nscreenshots &lt;a href=&quot;\nhttp://bayimg.com/eAObEAacp&quot; rel=&quot;nofollow&quot; target=&quot;_NEW&quot;&gt;\nhttp://bayimg.com/eAObEAacp&lt;/a&gt; &lt;a href=&quot;\nhttp://bayimg.com/eAObgAacP&quot; rel=&quot;nofollow&quot; target=&quot;_NEW&quot;&gt;\nhttp://bayimg.com/eAObgAacP&lt;/a&gt; &lt;a href=&quot;\nhttp://bayimg.com/EaobHAacp&quot; rel=&quot;nofollow&quot; target=&quot;_NEW&quot;&gt;\nhttp://bayimg.com/EaobHAacp&lt;/a&gt; &lt;a href=&quot;\nhttp://bayimg.com/EAoBiaACp&quot; rel=&quot;nofollow&quot; target=&quot;_NEW&quot;&gt;\nhttp://bayimg.com/EAoBiaACp&lt;/a&gt; &lt;a href=&quot;\nhttp://bayimg.com/EAobJAacP&quot; rel=&quot;nofollow&quot; target=&quot;_NEW&quot;&gt;\nhttp://bayimg.com/EAobJAacP&lt;/a&gt; &lt;a href=&quot;\nhttp://bayimg.com/eAObkaAcp&quot; rel=&quot;nofollow&quot; target=&quot;_NEW&quot;&gt;\nhttp://bayimg.com/eAObkaAcp&lt;/a&gt;\n\n\n\n---------------------------\n| M O V I E information |\n---------------------------\nTitle................................: Casino Royale\nDirector.............................: Martin Campbell\nRelease year.........................: 2006\nLanguage.............................: hindi\nRuntime..............................: 144 min \nGenre................................: Action | Adventure | Thriller\nColor................................: Color \nIMDb rating..........................: 8.0/10   144,361 votes\nLink 1...............................: http://www.imdb.com/title/tt0381061/\n\n\nGeneral\n\nComplete name                    : Casino Royale hindi.avi\n\nFormat                           : AVI\n\nFormat/Info                      : Audio Video Interleave\n\nFile size                        : 710 MiB\n\nDuration                         : 2h 14mn\n\nOverall bit rate                 : 737 Kbps\n\nWriting application              : MEncoder SVN-r30881(20100311-gcc4.3.3)\n\n\nVideo\n\nFormat                           : MPEG-4 Visual\n\nFormat profile                   : AdvancedSimple@L5\n\nFormat settings, BVOP            : Yes\n\nFormat settings, QPel            : No\n\nFormat settings, GMC             : No warppoints\n\nFormat settings, Matrix          : Default (H.263)\n\nCodec ID                         : XVID\n\nCodec ID/Hint                    : XviD\n\nDuration                         : 2h 14mn\n\nBit rate                         : 597 Kbps\n\nWidth                            : 480 pixels\n\nHeight                           : 208 pixels\n\nDisplay aspect ratio             : 2.35:1\n\nFrame rate                       : 25.000 fps\n\nResolution                       : 24 bits\n\nColorimetry                      : 4:2:0\n\nScan type                        : Progressive\n\nBits/(Pixel*Frame)               : 0.239\n\nStream size                      : 575 MiB (81%)\n\n\nAudio\n\nFormat                           : MPEG Audio\n\nFormat version                   : Version 1\n\nFormat profile                   : Layer 3\n\nCodec ID                         : 55\n\nCodec ID/Hint                    : MP3\n\nDuration                         : 2h 14mn\n\nBit rate mode                    : Constant\n\nBit rate                         : 128 Kbps\n\nChannel(s)                       : 2 channels\n\nSampling rate                    : 44.1 KHz\n\nResolution                       : 16 bits\n\nVideo delay                      : 40ms\n\nStream size                      : 123 MiB (17%)\n\nAlignment                        : Aligned on interleaves\n\nInterleave, duration             : 26 ms (0.65 video frame)\n\nInterleave, preload duration     : 522 ms\n\n\nscreenshots &lt;a href=&quot;\nhttp://bayimg.com/eAObEAacp&quot; rel=&quot;nofollow&quot; target=&quot;_NEW&quot;&gt;\nhttp://bayimg.com/eAObEAacp&lt;/a&gt; &lt;a href=&quot;\nhttp://bayimg.com/eAObgAacP&quot; rel=&quot;nofollow&quot; target=&quot;_NEW&quot;&gt;\nhttp://bayimg.com/eAObgAacP&lt;/a&gt; &lt;a href=&quot;\nhttp://bayimg.com/EaobHAacp&quot; rel=&quot;nofollow&quot; target=&quot;_NEW&quot;&gt;\nhttp://bayimg.com/EaobHAacp&lt;/a&gt; &lt;a href=&quot;\nhttp://bayimg.com/EAoBiaACp&quot; rel=&quot;nofollow&quot; target=&quot;_NEW&quot;&gt;\nhttp://bayimg.com/EAoBiaACp&lt;/a&gt; &lt;a href=&quot;\nhttp://bayimg.com/EAobJAacP&quot; rel=&quot;nofollow&quot; target=&quot;_NEW&quot;&gt;\nhttp://bayimg.com/EAobJAacP&lt;/a&gt; &lt;a href=&quot;\nhttp://bayimg.com/eAObkaAcp&quot; rel=&quot;nofollow&quot; target=&quot;_NEW&quot;&gt;\nhttp://bayimg.com/eAObkaAcp&lt;/a&gt;\n\n\nPlease Seed &amp; Post Comment\n                          by TheAaax9(Mr.Akshay)\n              $$TheAaax9$$                                               ","torrent":{"xt":"urn:btih:e1a81bd09b4a2ab535c4c6ae59bbbd8c93ce6a0a","amp;dn":"Casino+Royale+Hindi+TheAaax9","amp;tr":["udp%3A%2F%2Ftracker.openbittorrent.com%3A80","udp%3A%2F%2Fopen.demonii.com%3A1337","udp%3A%2F%2Ftracker.coppersurfer.tk%3A6969","udp%3A%2F%2Fexodus.desync.com%3A6969"],"infoHash":"e1a81bd09b4a2ab535c4c6ae59bbbd8c93ce6a0a","infoHashBuffer":{"type":"Buffer","data":[225,168,27,208,155,74,42,181,53,196,198,174,89,187,189,140,147,206,106,10]},"announce":[],"urlList":[]}}